<!DOCTYPE svg PUBLIC "-//W3C//DTD SVG 1.1//EN" "http://www.w3.org/Graphics/SVG/1.1/DTD/svg11.dtd">
<!-- Uploaded to: SVG Repo, www.svgrepo.com, Transformed by: SVG Repo Mixer Tools -->
<svg fill="#000000" width="800px" height="800px" viewBox="-1.9 -1.9 22.80 22.80" xmlns="http://www.w3.org/2000/svg" class="cf-icon-svg">
<g id="SVGRepo_bgCarrier" stroke-width="0">
<rect x="-1.9" y="-1.9" width="22.80" height="22.80" rx="11.4" fill="#EEf5db" strokewidth="0"/>
</g>
<g id="SVGRepo_tracerCarrier" stroke-linecap="round" stroke-linejoin="round"/>
<g id="SVGRepo_iconCarrier">
<path d="M16.417 9.579A7.917 7.917 0 1 1 8.5 1.662a7.917 7.917 0 0 1 7.917 7.917zm-3.473-3.697H4.052a.318.318 0 0 0-.317.317v5.979a.318.318 0 0 0 .317.317h4.05v.707h-1.61a.396.396 0 1 0 0 .792h4.011a.396.396 0 1 0 0-.792h-1.61v-.707h4.051a.318.318 0 0 0 .317-.317v-5.98a.318.318 0 0 0-.317-.316zm-.475 5.821H4.527v-5.03h7.942z"/>
</g>
</svg>